<svg height="40px" width= "40px" xmlns="http://www.w3.org/2000/svg" viewBox="0 0 500 500">
  <path fill="#FFFFFF" opacity="1.000000" stroke="none" 
    d="
    M375.981689,456.789673 
    C374.643707,462.523285 373.197937,467.797943 372.024902,473.132599 
    C369.450806,484.838623 358.989014,494.342499 346.082733,494.236603 
    C282.592529,493.715759 219.093918,493.751312 155.602859,494.216919 
    C143.399338,494.306396 132.934143,485.711090 130.078644,473.797821 
    C123.552170,446.569061 117.339157,419.265015 111.030815,391.984161 
    C106.063156,370.501221 101.127411,349.010864 96.208000,327.516815 
    C93.118477,314.018005 89.281807,300.624176 87.277565,286.963562 
    C85.632896,275.753723 92.767143,263.782837 105.827942,260.073669 
    C108.751678,259.243347 111.936401,259.047882 115.001717,259.043152 
    C156.498016,258.978912 197.994431,258.995483 239.490829,259.009888 
    C242.361359,259.010895 244.004852,259.020142 245.343063,255.094666 
    C248.064377,247.111984 246.066528,241.519073 241.193314,235.094696 
    C231.176895,221.889999 214.065094,207.773285 200.679489,200.548080 
    C194.237320,204.893906 188.640411,209.879486 182.121750,212.825470 
    C166.564835,219.856079 151.544388,217.003418 137.952026,207.356964 
    C113.808228,190.222229 98.927254,166.613403 91.101952,138.325943 
    C90.046242,134.509659 93.311195,129.052200 97.244781,128.038055 
    C113.756561,123.781128 130.435226,122.915810 147.407745,124.891975 
    C162.747284,126.678017 176.976852,131.314117 189.633331,140.046997 
    C201.895264,148.507629 208.247543,160.331177 206.948074,175.529510 
    C206.475189,181.060410 208.124023,184.095154 213.209335,187.366440 
    C223.418564,193.933853 232.667160,202.025009 242.108917,209.736206 
    C244.864975,211.987122 246.933350,215.080048 249.316910,217.787048 
    C249.877625,217.512726 250.438324,217.238403 250.999023,216.964066 
    C250.999023,213.770584 251.370895,210.525513 250.936325,207.392303 
    C248.751129,191.637497 245.786041,175.967850 244.231659,160.156555 
    C243.177444,149.433044 244.282959,138.513245 243.832642,127.705818 
    C243.671692,123.842506 242.315262,119.776031 240.533691,116.299828 
    C238.493652,112.319275 235.359940,108.902023 232.727356,105.221466 
    C230.651367,102.319084 228.169495,102.612183 225.455475,104.182365 
    C210.383072,112.902405 195.213837,109.762825 183.985428,99.122597 
    C172.954605,88.669647 165.794205,75.254189 162.118423,60.405632 
    C160.142563,52.423992 158.667999,44.192745 158.179123,36.001793 
    C157.626694,26.746292 162.717545,22.785332 172.724030,24.128147 
    C181.175507,25.262289 189.610199,26.923996 197.853973,29.102741 
    C208.523697,31.922642 217.943924,37.385868 226.728470,44.119965 
    C234.753342,50.271687 240.959351,57.616737 242.146912,67.803474 
    C242.781906,73.250244 241.380020,78.914108 241.182327,84.490097 
    C241.118942,86.278152 241.463181,88.488281 242.497482,89.829155 
    C245.300827,93.463402 249.028366,96.438820 251.512680,100.247383 
    C253.387741,103.121910 254.643875,102.374023 255.870422,100.506050 
    C263.020447,89.616936 273.024231,81.723824 283.134491,73.884140 
    C284.169128,73.081856 285.170837,70.971306 284.843750,69.865402 
    C278.140076,47.200813 288.792877,33.344971 304.828857,23.012953 
    C321.679474,12.156078 340.086060,7.053556 360.138123,7.999160 
    C363.815247,8.172563 366.941742,11.330382 366.963318,15.480698 
    C367.103119,42.365326 359.339203,66.286575 338.773407,84.491364 
    C328.440613,93.637939 315.906067,94.495453 303.317047,88.934029 
    C298.757751,86.919884 295.248474,86.311485 290.972107,89.895569 
    C279.274078,99.699890 268.054260,109.719879 262.740601,124.676338 
    C259.004852,135.191422 259.835663,145.725922 261.692871,156.463257 
    C263.795227,168.618103 265.265839,180.882431 266.995575,193.101349 
    C267.476105,196.495865 267.901428,199.898193 268.461609,204.122787 
    C270.291687,202.254471 272.047729,200.665741 273.565338,198.874969 
    C278.524078,193.023590 283.138702,186.856491 288.385376,181.281067 
    C292.344086,177.074295 293.877594,173.111740 291.850677,167.328476 
    C287.071014,153.691193 288.419525,140.065674 297.343109,128.896545 
    C303.543488,121.135872 311.980743,114.849007 320.270172,109.140182 
    C334.692108,99.208008 351.438660,94.906990 368.507782,92.091080 
    C373.672302,91.239075 378.993774,91.067383 384.243011,91.070847 
    C390.317505,91.074860 394.177002,94.734695 393.884308,100.795120 
    C393.491364,108.931831 393.058563,117.209518 391.227264,125.098038 
    C388.883881,135.192261 386.261688,145.515045 381.727173,154.740341 
    C374.453674,169.537903 366.011200,183.859818 350.039154,191.554398 
    C337.640717,197.527405 325.235046,197.560944 313.229706,191.419998 
    C307.814026,188.649780 304.705780,189.158813 300.750427,193.582199 
    C286.627106,209.376678 274.687622,226.593979 265.823456,245.831146 
    C264.048065,249.684158 263.745239,254.215698 262.631805,259.000000 
    C264.884216,259.000000 266.670990,259.000000 268.457764,259.000000 
    C308.787598,259.000000 349.117859,258.889313 389.446991,259.058624 
    C404.024231,259.119812 414.877747,270.506836 414.779266,284.948517 
    C414.733948,291.597809 412.464233,298.264130 410.952240,304.865295 
    C406.029877,326.355743 401.026306,347.827789 395.988068,369.291473 
    C391.428986,388.713806 386.717072,408.100403 382.204559,427.533447 
    C379.981750,437.105896 378.057159,446.747620 375.981689,456.789673 
    M360.997559,442.405548 
    C362.388367,435.782928 363.661560,429.132965 365.192078,422.542786 
    C369.740753,402.956970 374.417999,383.401031 378.994263,363.821564 
    C384.925995,338.442719 390.779633,313.045593 396.733826,287.672058 
    C398.167816,281.561157 394.723541,277.002167 388.398315,277.001984 
    C296.764252,276.999115 205.130219,276.998993 113.496162,277.002319 
    C107.629257,277.002533 103.858604,281.258057 105.055855,286.834381 
    C106.710945,294.543213 108.587029,302.205231 110.414932,309.876221 
    C114.254410,325.988953 118.216423,342.073120 121.959435,358.208130 
    C127.305290,381.252533 132.525208,404.326324 137.748901,427.398895 
    C140.557175,439.802734 143.060715,452.279175 146.078293,464.630859 
    C148.321426,473.812561 148.550491,477.149261 160.904816,477.103271 
    C221.882278,476.876251 282.861023,477.000336 343.839325,476.999481 
    C350.899872,476.999390 353.457489,474.890106 355.017334,468.123840 
    C356.931061,459.822357 358.975342,451.550964 360.997559,442.405548 
    M310.372650,141.103012 
    C307.221893,147.346634 305.568481,153.750702 308.508881,161.070297 
    C312.562866,158.011612 316.595154,155.057098 320.527832,151.975449 
    C323.918793,149.318268 327.260803,149.567215 330.970490,151.365768 
    C334.545105,153.098801 335.891724,156.194489 334.809052,159.360184 
    C333.731445,162.510956 331.419769,165.432907 329.068237,167.901840 
    C326.587524,170.506439 323.420044,172.456940 320.313568,174.879623 
    C330.029755,180.800903 342.992798,177.530853 350.303284,169.598801 
    C361.800903,157.123535 369.395782,142.892578 373.095642,126.481010 
    C374.383362,120.769020 375.290436,114.971207 376.487732,108.592499 
    C373.877716,109.272522 372.502838,109.845688 371.089478,109.965775 
    C356.700775,111.188438 343.364716,115.838020 331.053253,123.106339 
    C323.367371,127.643867 315.972778,132.847885 310.372650,141.103012 
    M176.269684,152.024750 
    C155.562820,141.939850 134.031097,138.038483 111.090202,143.245132 
    C112.622231,146.963638 113.931534,150.600388 115.584007,154.073898 
    C123.230629,170.147049 134.606995,183.099304 148.979874,193.480652 
    C158.762497,200.546509 170.482315,200.714783 179.214111,194.419540 
    C182.539810,192.021851 181.500839,190.603287 178.757660,189.399918 
    C174.514389,187.538513 170.145447,185.953461 165.789612,184.361160 
    C159.921402,182.216049 157.345337,178.112350 158.966324,173.278992 
    C160.886856,167.552475 165.011719,165.635849 171.310593,167.809387 
    C177.030487,169.783142 182.667938,171.995819 189.595444,174.568817 
    C188.992798,171.008438 188.746979,168.211227 188.021774,165.544373 
    C186.376419,159.493698 181.681732,155.894836 176.269684,152.024750 
    M212.754395,75.813042 
    C216.722214,75.813042 220.690033,75.813042 225.890839,75.813042 
    C224.646210,72.288223 224.067902,67.717628 221.685577,64.470650 
    C215.326370,55.803413 206.129929,50.664429 196.187119,47.055420 
    C190.075165,44.836926 183.880447,42.389370 177.000687,43.136044 
    C177.000687,44.622669 176.864151,45.638927 177.021317,46.607533 
    C179.145569,59.699150 183.849274,71.727005 192.483917,81.912292 
    C197.196548,87.471260 202.407013,92.621269 211.340530,90.546753 
    C208.292191,85.594833 207.528549,80.728264 212.754395,75.813042 
    M308.652527,42.030769 
    C302.849213,46.988251 298.986938,52.770733 300.384460,61.724533 
    C306.127747,58.077862 311.973877,55.150608 316.730560,61.455177 
    C319.735046,65.437340 318.625183,70.097198 314.981140,74.092499 
    C321.431122,74.687317 326.020996,72.684441 330.157104,68.480080 
    C337.476288,61.040123 342.084625,52.033199 345.652435,42.511372 
    C347.571869,37.388760 348.155060,31.765453 349.370544,26.234270 
    C337.325653,25.696033 318.747742,33.288380 308.652527,42.030769 
    z"/>
  <path fill="#FFFFFF" opacity="1.000000" stroke="none" 
    d="
    M185.000061,313.000000 
    C197.424927,312.958771 209.401367,312.162811 220.818085,316.980682 
    C231.913025,321.662781 238.179779,329.134216 237.741943,341.487610 
    C237.310791,353.651794 231.959549,362.322388 221.901703,365.877228 
    C227.021591,369.331696 233.147415,372.944824 238.671890,377.317688 
    C246.410339,383.443024 245.278549,404.249634 238.939041,412.769318 
    C231.155212,423.230011 220.320190,427.178253 208.349335,427.805969 
    C193.106262,428.605286 177.789520,427.999634 162.000015,427.999634 
    C162.000015,426.447266 162.000015,425.175232 162.000015,423.903198 
    C162.000015,388.776031 162.075073,353.648529 161.905106,318.522186 
    C161.883820,314.123962 163.097946,312.630035 167.524612,312.912781 
    C173.161972,313.272827 178.839767,313.000000 185.000061,313.000000 
    M213.153366,378.024109 
    C203.580276,374.983459 193.813492,376.234314 184.000061,376.005127 
    C184.000061,386.684448 184.049133,396.657562 183.967499,406.629578 
    C183.945541,409.311249 184.297943,411.300751 187.665604,411.007355 
    C195.625809,410.313873 203.659576,410.098236 211.527374,408.838562 
    C216.813599,407.992218 222.760208,402.887024 223.053238,396.113434 
    C223.530670,385.077179 222.130676,382.207520 213.153366,378.024109 
    M192.459152,331.000000 
    C189.697845,331.000000 186.936554,331.000000 184.282898,331.000000 
    C184.282898,340.991821 184.282898,350.385681 184.282898,360.911743 
    C192.736450,359.905182 200.879898,359.410767 208.810059,357.839783 
    C215.062729,356.601135 216.420013,350.926453 216.952438,345.444550 
    C217.509338,339.710602 215.193634,334.669678 210.258240,333.281830 
    C204.860214,331.763947 199.053741,331.698486 192.459152,331.000000 
    z"/>
  <path fill="#FFFFFF" opacity="1.000000" stroke="none" 
    d="
    M283.000000,368.096802 
    C282.448395,378.809143 284.007843,388.439026 289.103760,397.638977 
    C297.958527,413.624969 319.851440,416.747681 333.484100,403.975037 
    C334.560638,402.966400 335.434174,401.741028 336.846344,400.100128 
    C340.287842,404.013153 343.725647,407.145294 346.063599,410.952789 
    C347.033539,412.532440 346.551514,416.511322 345.204834,417.778534 
    C326.333221,435.536438 293.733826,433.825623 277.220337,416.573151 
    C266.678375,405.559387 260.989349,392.079529 261.108978,376.704803 
    C261.178955,367.713287 260.983887,358.354553 263.350098,349.839630 
    C266.232269,339.468018 271.899872,329.846863 280.834442,323.075714 
    C291.516174,314.980499 303.730621,311.164520 317.178894,312.037842 
    C328.106720,312.747528 336.821533,318.628174 345.238556,324.917572 
    C345.765259,325.311157 345.676270,327.500275 345.093750,328.238800 
    C342.556732,331.455322 339.916962,334.648895 336.897156,337.391266 
    C335.985077,338.219543 333.216187,338.260071 332.166840,337.484985 
    C322.170166,330.100586 311.632538,328.244843 300.334351,333.993042 
    C290.604034,338.943542 286.383575,347.881317 284.062927,357.910797 
    C283.334686,361.058105 283.333832,364.373718 283.000000,368.096802 
    z"/>
  </svg>